<svg width="24" height="24" viewBox="0 0 24 24" fill="none" xmlns="http://www.w3.org/2000/svg">
<path d="M22.9875 16.8875H21.975C21.375 11.975 17.5875 8.1875 12.975 7.7V6.9875H13.275C13.875 6.9875 14.2875 6.575 14.2875 5.975C14.2875 5.375 13.9125 5 13.3125 5H10.725C10.125 5 9.7125 5.4125 9.7125 6.0125C9.7125 6.6125 10.125 7.025 10.725 7.025H11.025V7.7375C6.4125 8.225 2.7375 12.05 2.025 16.925H1.0125C0.4125 16.925 0 17.3375 0 17.9375V18.8375C0 21.0875 1.9125 23 4.2 23H19.8C22.0875 23 24 21.0875 24 18.8V17.9C24 17.4125 23.5875 16.8875 22.9875 16.8875ZM12 9.6875C16.0125 9.6875 19.3125 12.8 19.9875 16.8875H4.0125C4.6875 12.8 7.9875 9.6875 12 9.6875ZM19.8 21.0125H4.2C3 21.0125 1.9875 20.1125 1.9875 18.9125H21.975C22.0125 20.1125 21 21.0125 19.8 21.0125Z" fill="black"/>
</svg>
